<svg xmlns="http://www.w3.org/2000/svg" width="25.259" height="29.358" viewBox="0 0 25.259 29.358">
  <defs>
    <style>
      .cls-1 {
        fill: none;
        stroke: #000;
        stroke-width: 2.5px;
      }
    </style>
  </defs>
  <g id="apple" transform="translate(1.25 1.25)">
    <path id="apple-line-2" class="cls-1" d="M17.481,2c.5,3-2.634,5.276-4.386,6.3a.658.658,0,0,1-1.011-.674C12.384,5.634,13.478,2,17.481,2Z" transform="translate(-0.953 -2)"/>
    <path id="apple-line-1" class="cls-1" d="M10.887,6.5a9.269,9.269,0,0,1,3.16.579,4.936,4.936,0,0,0,3.321,0,9.268,9.268,0,0,1,3.16-.579,6.8,6.8,0,0,1,4.821,2.433c-4.82,3.765-3.443,9.963,1.059,11.6-1.437,3.95-4.17,6.623-6.569,6.623-2.066,0-2.066-.964-4.132-.964s-2.066.964-4.132.964C8.132,27.16,4,21.65,4,14.764,4,9.255,8.132,6.5,10.887,6.5Z" transform="translate(-4 -0.302)"/>
  </g>
</svg>
