<svg xmlns="http://www.w3.org/2000/svg" width="31.046" height="26.539" viewBox="0 0 31.046 26.539">
  <defs>
    <style>
      .cls-1, .cls-2 {
        fill: none;
        stroke: #000;
        stroke-linecap: round;
        stroke-width: 2.5px;
      }

      .cls-2 {
        stroke-linejoin: round;
      }
    </style>
  </defs>
  <g id="linux" transform="translate(1.25 1.25)">
    <path id="linux-line-7" class="cls-1" d="M2.5,28.039a3.011,3.011,0,0,0,3-3V14.517C5.5,9.258,10.162,4,16.773,4" transform="translate(-2.5 -4)"/>
    <path id="linux-line-6" class="cls-1" d="M26.273,28.039a3.011,3.011,0,0,1-3-3V14.517C23.268,9.258,18.611,4,12,4" transform="translate(2.273 -4)"/>
    <path id="linux-line-5" class="cls-2" d="M14.512,21.512c4.149,0,7.512-1.682,7.512-3.756S18.661,14,14.512,14,7,15.682,7,17.756,10.363,21.512,14.512,21.512Z" transform="translate(-0.239 1.024)"/>
    <path id="linux-line-4" class="cls-2" d="M8.127,18.014A6.424,6.424,0,0,1,7,14.258C7,11.354,8.682,9,10.756,9s3.756,2.354,3.756,5.258a7.124,7.124,0,0,1-.263,1.937" transform="translate(-0.239 -1.488)"/>
    <path id="linux-line-3" class="cls-2" d="M18.385,18.014a6.424,6.424,0,0,0,1.127-3.756c0-2.9-1.682-5.258-3.756-5.258S12,11.354,12,14.258a7.124,7.124,0,0,0,.263,1.937" transform="translate(2.273 -1.488)"/>
    <path id="linux-line-2" class="cls-2" d="M9.5,12v3" transform="translate(1.017 0.019)"/>
    <path id="linux-line-1" class="cls-2" d="M14.5,12v3" transform="translate(3.529 0.019)"/>
  </g>
</svg>
